<svg xmlns="http://www.w3.org/2000/svg" viewBox="0 0 64 64" role="img" aria-labelledby="title desc">
  <title id="title">LoveNow</title>
  <desc id="desc">Monogramme en forme de cœur pour l'application LoveNow</desc>
  <defs>
    <linearGradient id="bg" x1="10%" y1="0%" x2="90%" y2="100%">
      <stop offset="0%" stop-color="#ff61a3" />
      <stop offset="50%" stop-color="#ff3d8a" />
      <stop offset="100%" stop-color="#b25fff" />
    </linearGradient>
    <linearGradient id="heart" x1="0%" y1="0%" x2="100%" y2="100%">
      <stop offset="0%" stop-color="#fff5fb" />
      <stop offset="100%" stop-color="#ffe1f0" />
    </linearGradient>
    <filter id="shadow" x="-20%" y="-20%" width="140%" height="140%" filterUnits="objectBoundingBox">
      <feDropShadow dx="0" dy="6" stdDeviation="6" flood-color="#2f1634" flood-opacity="0.3" />
    </filter>
  </defs>
  <rect width="56" height="56" x="4" y="4" rx="18" fill="url(#bg)" />
  <path fill="url(#heart)" filter="url(#shadow)" d="M32 44.5c-7.5-5.3-13.5-10.5-13.5-17.6 0-5.5 4.3-9.8 9.6-9.8 2.7 0 5.4 1.2 7.4 3.3 2-2.1 4.7-3.3 7.4-3.3 5.3 0 9.6 4.3 9.6 9.8 0 7.1-6 12.3-13.5 17.6l-3.5 2.5-3.5-2.5z" />
  <path fill="#fff" opacity="0.6" d="M44.5 16.5c1.4 0 2.5 1.1 2.5 2.5s-1.1 2.5-2.5 2.5-2.5-1.1-2.5-2.5 1.1-2.5 2.5-2.5z" />
  <path fill="#fff" opacity="0.28" d="M20 24c0-2.5 1.9-4.4 4.2-4.4 1.4 0 2.8 0.7 3.7 1.9 0.5 0.7 1.6 0.7 2.1 0 0.9-1.2 2.3-1.9 3.7-1.9 2.3 0 4.2 1.9 4.2 4.4 0 3.7-3.5 6.8-10 11.4-6.5-4.6-10-7.7-10-11.4z" />
</svg>
